<svg xmlns="http://www.w3.org/2000/svg" version="1.1" width="25" height="55"><g transform="translate(0, 45)"><path d="M3.36-31.39Q2.69-31.73 2.69-32.35 2.69-32.98 3.36-33.31L3.36-33.31 9.74-33.31Q16.08-33.31 16.08-33.41L16.08-33.41 16.9-37.01Q17.71-40.61 17.76-40.66L17.76-40.66Q17.95-41.23 18.72-41.23L18.72-41.23Q19.58-41.23 19.58-40.37L19.58-40.37Q19.58-40.27 18.86-36.98 18.14-33.7 18.05-33.41L18.05-33.41Q18.05-33.31 20.69-33.31L20.69-33.31 23.38-33.31Q23.86-32.93 24-32.59L24-32.59 24-0.72Q23.9-0.48 23.38-0.05L23.38-0.05 16.94 0Q10.56 0 10.56 0.1L10.56 0.1 8.83 7.49Q8.64 7.92 8.02 7.92L8.02 7.92Q7.06 7.92 7.06 7.06L7.06 7.06Q7.06 6.96 7.78 3.67 8.5 0.38 8.59 0.1L8.59 0.1Q8.59 0 6 0L6 0 3.36 0Q2.69-0.34 2.69-0.96 2.69-1.58 3.36-1.92L3.36-1.92 9.02-1.92Q9.07-2.16 9.89-5.78 10.7-9.41 11.4-12.46 12.1-15.5 12.1-15.65L12.1-15.65Q12.1-15.7 8.06-15.7L8.06-15.7 4.03-15.7Q3.36-16.03 3.36-16.66 3.36-17.28 4.03-17.62L4.03-17.62 12.58-17.62 14.06-24.43Q14.4-25.82 14.83-27.72 15.26-29.62 15.46-30.43L15.46-30.43 15.65-31.3Q15.65-31.39 9.5-31.39L9.5-31.39 3.36-31.39ZM22.08-31.39L17.62-31.39Q17.57-31.15 16.75-27.53 15.94-23.9 15.24-20.86 14.54-17.81 14.54-17.66L14.54-17.66Q14.54-17.62 18.34-17.62L18.34-17.62 22.08-17.62 22.08-31.39ZM16.51-1.92L22.08-1.92 22.08-15.7 14.11-15.7 12.58-8.88Q12.24-7.49 11.81-5.59 11.38-3.7 11.18-2.88L11.18-2.88 10.99-2.02Q10.99-1.92 16.51-1.92L16.51-1.92Z" fill="#000000"></path></g></svg>